<svg xmlns="http://www.w3.org/2000/svg" xmlns:xlink="http://www.w3.org/1999/xlink" width="300" zoomAndPan="magnify" viewBox="0 0 224.87999 225" height="300" preserveAspectRatio="xMidYMid meet" version="1.0"><defs><clipPath id="4cd833e338"><path d="M 2.433594 2.492188 L 222.8125 2.492188 L 222.8125 222.875 L 2.433594 222.875 Z M 2.433594 2.492188 " clip-rule="nonzero"/></clipPath></defs><g clip-path="url(#4cd833e338)"><path fill="#000000" d="M 66.957031 3.25 C 55.238281 3.800781 47.234375 5.679688 40.238281 8.417969 C 32.992188 11.242188 26.859375 15.019531 20.753906 21.15625 C 14.640625 27.292969 10.882812 33.4375 8.089844 40.691406 C 5.378906 47.710938 3.542969 55.714844 3.023438 67.445312 C 2.503906 79.183594 2.390625 82.933594 2.441406 112.847656 C 2.492188 142.757812 2.628906 146.515625 3.191406 158.265625 C 3.75 169.984375 5.617188 177.976562 8.359375 184.984375 C 11.183594 192.230469 14.960938 198.355469 21.097656 204.46875 C 27.230469 210.582031 33.375 214.332031 40.632812 217.132812 C 47.640625 219.84375 55.652344 221.691406 67.375 222.199219 C 79.125 222.71875 82.871094 222.832031 112.777344 222.769531 C 142.695312 222.71875 146.441406 222.582031 158.195312 222.023438 C 169.914062 221.460938 177.90625 219.582031 184.914062 216.851562 C 192.160156 214.019531 198.296875 210.25 204.398438 204.117188 C 210.503906 197.980469 214.261719 191.835938 217.0625 184.578125 C 219.773438 177.574219 221.621094 169.558594 222.128906 157.847656 C 222.636719 146.097656 222.761719 142.339844 222.710938 112.433594 C 222.660156 82.527344 222.511719 78.78125 221.964844 67.027344 C 221.402344 55.296875 219.535156 47.304688 216.792969 40.296875 C 213.960938 33.050781 210.191406 26.929688 204.054688 20.8125 C 197.921875 14.710938 191.777344 10.941406 184.519531 8.148438 C 177.511719 5.441406 169.5 3.59375 157.777344 3.082031 C 146.027344 2.566406 142.269531 2.449219 112.363281 2.503906 C 82.457031 2.554688 78.710938 2.6875 66.957031 3.25 M 68.246094 202.363281 C 57.511719 201.894531 51.679688 200.109375 47.785156 198.613281 C 42.636719 196.621094 38.972656 194.234375 35.101562 190.402344 C 31.238281 186.550781 28.851562 182.886719 26.835938 177.757812 C 25.332031 173.878906 23.515625 168.054688 23.007812 157.308594 C 22.457031 145.703125 22.332031 142.214844 22.28125 112.808594 C 22.226562 83.410156 22.332031 79.921875 22.839844 68.304688 C 23.296875 57.570312 25.09375 51.738281 26.585938 47.855469 C 28.582031 42.707031 30.957031 39.042969 34.800781 35.171875 C 38.648438 31.308594 42.316406 28.921875 47.453125 26.90625 C 51.335938 25.390625 57.160156 23.585938 67.890625 23.078125 C 79.507812 22.527344 82.984375 22.414062 112.394531 22.351562 C 141.804688 22.289062 145.292969 22.390625 156.90625 22.910156 C 167.640625 23.378906 173.476562 25.152344 177.355469 26.65625 C 182.507812 28.652344 186.179688 31.019531 190.042969 34.871094 C 193.902344 38.71875 196.300781 42.375 198.304688 47.523438 C 199.820312 51.394531 201.628906 57.230469 202.136719 67.953125 C 202.6875 79.570312 202.8125 83.054688 202.863281 112.453125 C 202.914062 141.863281 202.8125 145.351562 202.300781 156.957031 C 201.835938 167.691406 200.050781 173.535156 198.554688 177.417969 C 196.5625 182.554688 194.183594 186.230469 190.332031 190.09375 C 186.480469 193.941406 182.828125 196.339844 177.679688 198.355469 C 173.808594 199.871094 167.972656 201.675781 157.25 202.183594 C 145.632812 202.734375 142.15625 202.859375 112.738281 202.914062 C 83.339844 202.964844 79.851562 202.859375 68.234375 202.351562 M 158.039062 53.761719 C 158.050781 61.058594 163.988281 66.964844 171.273438 66.945312 C 178.570312 66.933594 184.476562 61.007812 184.46875 53.710938 C 184.457031 46.414062 178.519531 40.507812 171.222656 40.515625 C 163.925781 40.527344 158.019531 46.464844 158.027344 53.75 M 56.015625 112.746094 C 56.078125 143.980469 81.449219 169.246094 112.675781 169.183594 C 143.910156 169.121094 169.1875 143.761719 169.125 112.527344 C 169.0625 81.300781 143.691406 56.023438 112.457031 56.078125 C 81.230469 56.140625 55.953125 81.507812 56.015625 112.746094 M 75.855469 112.703125 C 75.824219 92.429688 92.226562 75.957031 112.5 75.925781 C 132.773438 75.882812 149.246094 92.285156 149.289062 112.570312 C 149.328125 132.84375 132.917969 149.316406 112.644531 149.347656 C 92.371094 149.390625 75.894531 132.976562 75.863281 112.703125 " fill-opacity="1" fill-rule="nonzero"/></g></svg>