<svg xmlns="http://www.w3.org/2000/svg" xmlns:xlink="http://www.w3.org/1999/xlink" width="300" zoomAndPan="magnify" viewBox="0 0 224.87999 225" height="300" preserveAspectRatio="xMidYMid meet" version="1.0"><defs><clipPath id="09b2214018"><path d="M 6.050781 8.148438 L 214 8.148438 L 214 215 L 6.050781 215 Z M 6.050781 8.148438 " clip-rule="nonzero"/></clipPath></defs><g clip-path="url(#09b2214018)"><path fill="#000000" d="M 182.585938 184.363281 L 151.882812 184.363281 L 151.882812 136.433594 C 151.882812 125 151.679688 110.289062 135.917969 110.289062 C 120.15625 110.289062 117.480469 122.742188 117.480469 135.605469 L 117.480469 184.363281 L 86.773438 184.363281 L 86.773438 85.792969 L 116.246094 85.792969 L 116.246094 99.269531 L 116.65625 99.269531 C 122.664062 89.023438 133.847656 82.902344 145.742188 83.347656 C 176.855469 83.347656 182.597656 103.757812 182.597656 130.296875 L 182.597656 184.375 Z M 52.144531 72.316406 C 42.300781 72.316406 34.332031 64.371094 34.324219 54.558594 C 34.3125 44.742188 42.292969 36.796875 52.136719 36.789062 C 61.980469 36.789062 69.949219 44.734375 69.957031 54.546875 C 69.96875 64.363281 61.988281 72.308594 52.144531 72.316406 M 67.496094 184.363281 L 36.765625 184.363281 L 36.765625 85.792969 L 67.496094 85.792969 Z M 197.890625 8.367188 L 21.34375 8.367188 C 12.996094 8.28125 6.148438 14.941406 6.050781 23.265625 L 6.050781 200.023438 C 6.148438 208.347656 12.996094 215.015625 21.34375 214.929688 L 197.898438 214.929688 C 206.269531 215.035156 213.132812 208.367188 213.25 200.023438 L 213.25 23.246094 C 213.125 14.910156 206.257812 8.25 197.890625 8.359375 " fill-opacity="1" fill-rule="nonzero"/></g></svg>